<mxfile host="65bd71144e">
    <diagram id="dzvHfm4BJdx3V4JWQNx5" name="Page-1">
        <mxGraphModel dx="1822" dy="1107" grid="1" gridSize="10" guides="1" tooltips="1" connect="1" arrows="1" fold="1" page="1" pageScale="1" pageWidth="827" pageHeight="1169" math="0" shadow="0">
            <root>
                <mxCell id="0"/>
                <mxCell id="1" parent="0"/>
                <mxCell id="3" value="&lt;b style=&quot;font-weight: normal&quot; id=&quot;docs-internal-guid-a1b6a34a-7fff-02a3-966f-621f83f9b6c2&quot;&gt;&lt;span style=&quot;font-size: 11pt; font-family: arial; color: rgb(0, 0, 0); background-color: transparent; font-weight: 400; font-style: normal; font-variant: normal; text-decoration: none; vertical-align: baseline;&quot;&gt;&lt;span style=&quot;border: none ; display: inline-block ; overflow: hidden ; width: 533px ; height: 342px&quot;&gt;&lt;img src=&quot;https://lh4.googleusercontent.com/37Dlnc2gkPaSVP4W49Gp9UDau0fkaAvcndnu8fuQaKrpCnBpkcftDqCAKMAiSt_lsRO54zkveW8wvM4ftwHi6IhOhOHeqtHaAk8LZMJMciK-XmKqjHLOrEuydtJ22h0ukS1SkHBs_2R0tOYgtw&quot; width=&quot;602&quot; height=&quot;464.0253573561282&quot; style=&quot;margin-left: -55px ; margin-top: -76.84404300707521px&quot;&gt;&lt;/span&gt;&lt;/span&gt;&lt;/b&gt;" style="text;whiteSpace=wrap;html=1;" vertex="1" parent="1">
                    <mxGeometry x="90" y="410" width="550" height="290" as="geometry"/>
                </mxCell>
            </root>
        </mxGraphModel>
    </diagram>
</mxfile>